<svg width="256" height="256" xmlns="http://www.w3.org/2000/svg" viewBox="0 0 256 256"><g fill="none" fill-rule="evenodd"><circle fill="#fff" cx="128" cy="128" r="128"/><path d="M205.793 120.228c-3.355-33.12-31.046-59.282-65.04-59.282-30.948 0-56.85 20.546-63.957 48.285l22.876 6.189c5.187-15.995 22.098-28.021 41.081-28.021 21.46 0 39.011 15.359 39.011 34.307 0 17.425-15.165 31.789-34.039 32.973v24.016c32.21-1.181 58.293-23.984 60.068-51.467z" fill="#5470C6"/><path d="M50.381 135.587c-1.25-2.561-2.05-5.368-2.05-8.425 0-7.632 7.057-14.427 17.519-19.153l22.837 6.177c-2.562 3.482-4.162 7.347-4.162 11.134 0 2.056.5 4.035 1.387 5.833l-17.36 21.918c-8.563-3.587-15.006-9.336-18.171-16.484zm2.897 24.094c.011.003.022.006.034.01l19.314-24.41c13.387 8.862 37.192 14.324 66.394 13.286v17.934c-35.675-1.297-65.56-12.857-85.741-31.534z" fill="#91CC75"/><path d="M201.666 143.353l-25.572-7.337c-8.246 12.417-30.506 21.303-56.048 21.303-2.221 0-4.423-.052-6.59-.145V138.38c2.182.064 4.395.102 6.59.102 18.154 0 32.892-6.292 39.322-15.361l-23.867-6.457a3.053 3.053 0 0 1-.702-.198c-.403-.155-.832-.284-1.25-.448l-57.792-15.642c-.029.034-.056.067-.085.101-17.86 22.047-12.133 50.261 16.349 68.769 20.006 12.911 48.53 20.417 78.928 13.414 33.299-7.529 53.762-27.738 54.025-51.118zm-6.902-23.125c-.004 0-.007-.001-.011-.002l-17.478 21.469 17.489-21.472z" fill="#FAC858"/></g></svg>
